<svg xmlns="http://www.w3.org/2000/svg" viewBox="0 0 100.1 95.19"><defs><style>.cls-1{fill:#fff;stroke:#fead2a;stroke-miterlimit:10;stroke-width:9px;}.cls-2,.cls-3{fill:#fead2a;}.cls-3{font-size:10.01px;font-family:PreospeRegular, Preospe;}</style></defs><g id="Layer_2" data-name="Layer 2"><g id="Layer_1-2" data-name="Layer 1"><rect class="cls-1" x="4.5" y="4.5" width="91.1" height="86.19" rx="9.5"/><path class="cls-2" d="M13.32,60.28V16.56H57.05c0,.46.07.93.07,1.4,0,4.59.05,9.18,0,13.76a3.41,3.41,0,0,1-.92,2.15Q43.46,46.7,30.63,59.4a3.51,3.51,0,0,1-2.15.91c-4.59.08-9.17,0-13.76,0C14.28,60.35,13.85,60.31,13.32,60.28Zm11-11.8L45.24,27.54H24.31Z"/><path class="cls-2" d="M13.34,66.53c5.41,0,10.69,0,16,0a3.87,3.87,0,0,0,3.1-1.25Q47.65,50,62.94,34.7a3.26,3.26,0,0,1,2.58-1.09c4.92.06,15.18,0,20.22,0v11c-3.17,0-11.6,0-14.69,0a3.25,3.25,0,0,0-2.59,1.06Q53.06,61.12,37.61,76.55a3,3,0,0,1-2.31,1c-6.86-.05-13.72,0-20.58,0H13.34Z"/><text class="cls-3" transform="translate(45.24 77.54)">DESIGNER</text></g></g></svg>